<?xml version="1.0" encoding="UTF-8"?>
<svg xmlns="http://www.w3.org/2000/svg" xmlns:xlink="http://www.w3.org/1999/xlink" width="1280" height="720" viewBox="0 0 1280 720">
<defs>
<g>
<g id="glyph-0-0">
<path d="M 2.285156 0.0703125 C 1.679688 0.0703125 1.191406 -0.128906 0.828125 -0.527344 C 0.464844 -0.929688 0.28125 -1.449219 0.28125 -2.089844 C 0.28125 -2.777344 0.464844 -3.324219 0.839844 -3.734375 C 1.210938 -4.144531 1.714844 -4.351562 2.355469 -4.351562 C 2.949219 -4.351562 3.425781 -4.152344 3.785156 -3.753906 C 4.144531 -3.355469 4.328125 -2.835938 4.328125 -2.191406 C 4.328125 -1.496094 4.140625 -0.941406 3.769531 -0.535156 C 3.402344 -0.132812 2.90625 0.0703125 2.285156 0.0703125 M 2.320312 -3.898438 C 1.871094 -3.898438 1.507812 -3.734375 1.226562 -3.410156 C 0.945312 -3.085938 0.804688 -2.660156 0.804688 -2.132812 C 0.804688 -1.605469 0.941406 -1.183594 1.214844 -0.859375 C 1.488281 -0.539062 1.847656 -0.378906 2.285156 -0.378906 C 2.753906 -0.378906 3.125 -0.53125 3.394531 -0.839844 C 3.664062 -1.144531 3.800781 -1.574219 3.800781 -2.125 C 3.800781 -2.6875 3.671875 -3.125 3.40625 -3.433594 C 3.144531 -3.742188 2.78125 -3.898438 2.320312 -3.898438 Z "/>
</g>
<g id="glyph-0-1">
<path d="M 2.964844 0 L 2.476562 0 L 2.476562 -0.484375 L 2.464844 -0.484375 C 2.261719 -0.113281 1.949219 0.0703125 1.523438 0.0703125 C 0.792969 0.0703125 0.429688 -0.363281 0.429688 -1.230469 L 0.429688 -3.054688 L 0.914062 -3.054688 L 0.914062 -1.308594 C 0.914062 -0.664062 1.164062 -0.339844 1.65625 -0.339844 C 1.894531 -0.339844 2.089844 -0.429688 2.246094 -0.605469 C 2.398438 -0.78125 2.476562 -1.011719 2.476562 -1.296875 L 2.476562 -3.054688 L 2.964844 -3.054688 Z "/>
</g>
<g id="glyph-0-2">
<path d="M 1.914062 -0.03125 C 1.796875 0.0351562 1.644531 0.0664062 1.457031 0.0664062 C 0.921875 0.0664062 0.652344 -0.234375 0.652344 -0.828125 L 0.652344 -2.636719 L 0.128906 -2.636719 L 0.128906 -3.054688 L 0.652344 -3.054688 L 0.652344 -3.800781 L 1.144531 -3.960938 L 1.144531 -3.054688 L 1.914062 -3.054688 L 1.914062 -2.636719 L 1.144531 -2.636719 L 1.144531 -0.914062 C 1.144531 -0.710938 1.175781 -0.566406 1.246094 -0.476562 C 1.316406 -0.390625 1.433594 -0.347656 1.59375 -0.347656 C 1.714844 -0.347656 1.824219 -0.378906 1.914062 -0.449219 Z "/>
</g>
<g id="glyph-0-3">
<path d="M 0.996094 -0.441406 L 0.984375 -0.441406 L 0.984375 1.40625 L 0.496094 1.40625 L 0.496094 -3.054688 L 0.984375 -3.054688 L 0.984375 -2.519531 L 0.996094 -2.519531 C 1.238281 -2.925781 1.589844 -3.125 2.054688 -3.125 C 2.445312 -3.125 2.753906 -2.988281 2.976562 -2.714844 C 3.195312 -2.441406 3.304688 -2.078125 3.304688 -1.617188 C 3.304688 -1.105469 3.183594 -0.695312 2.933594 -0.390625 C 2.683594 -0.0820312 2.34375 0.0703125 1.914062 0.0703125 C 1.515625 0.0703125 1.210938 -0.0976562 0.996094 -0.441406 M 0.984375 -1.675781 L 0.984375 -1.246094 C 0.984375 -0.996094 1.066406 -0.78125 1.230469 -0.605469 C 1.394531 -0.429688 1.601562 -0.339844 1.855469 -0.339844 C 2.152344 -0.339844 2.382812 -0.453125 2.550781 -0.679688 C 2.71875 -0.90625 2.804688 -1.222656 2.804688 -1.625 C 2.804688 -1.964844 2.726562 -2.234375 2.570312 -2.425781 C 2.410156 -2.617188 2.199219 -2.714844 1.929688 -2.714844 C 1.644531 -2.714844 1.417969 -2.617188 1.246094 -2.417969 C 1.070312 -2.21875 0.984375 -1.972656 0.984375 -1.675781 Z "/>
</g>
</g>
</defs>
<g fill="rgb(9.019608%, 16.470588%, 22.745098%)" fill-opacity="1">
<use xlink:href="#glyph-0-0" x="30" y="26.59375"/>
<use xlink:href="#glyph-0-1" x="35" y="26.59375"/>
<use xlink:href="#glyph-0-2" x="38" y="26.59375"/>
<use xlink:href="#glyph-0-3" x="40" y="26.59375"/>
<use xlink:href="#glyph-0-1" x="44" y="26.59375"/>
<use xlink:href="#glyph-0-2" x="47" y="26.59375"/>
</g>
</svg>
